<mxfile host="app.diagrams.net" agent="Mozilla/5.0 (Macintosh; Intel Mac OS X 10_15_7) AppleWebKit/537.36 (KHTML, like Gecko) Chrome/132.0.0.0 Safari/537.36" version="26.0.11">
  <diagram name="Page-1" id="BN-YJdyvJRE70q71Tx9I">
    <mxGraphModel dx="1242" dy="785" grid="1" gridSize="10" guides="1" tooltips="1" connect="1" arrows="1" fold="1" page="1" pageScale="1" pageWidth="850" pageHeight="1100" math="0" shadow="0">
      <root>
        <mxCell id="0" />
        <mxCell id="1" parent="0" />
        <mxCell id="6-rMLU2-hN97OAZTNsfX-6" value="" style="edgeStyle=orthogonalEdgeStyle;rounded=0;orthogonalLoop=1;jettySize=auto;html=1;" edge="1" parent="1" source="6-rMLU2-hN97OAZTNsfX-1" target="6-rMLU2-hN97OAZTNsfX-4">
          <mxGeometry relative="1" as="geometry" />
        </mxCell>
        <mxCell id="6-rMLU2-hN97OAZTNsfX-1" value="hino_umbundu" style="swimlane;childLayout=stackLayout;horizontal=1;startSize=50;horizontalStack=0;rounded=1;fontSize=14;fontStyle=0;strokeWidth=2;resizeParent=0;resizeLast=1;shadow=0;dashed=0;align=center;arcSize=4;whiteSpace=wrap;html=1;" vertex="1" parent="1">
          <mxGeometry x="100" y="140" width="160" height="150" as="geometry" />
        </mxCell>
        <mxCell id="6-rMLU2-hN97OAZTNsfX-2" value="_id&lt;div&gt;title&lt;/div&gt;&lt;div&gt;category&lt;/div&gt;&lt;div&gt;lyrics&lt;/div&gt;&lt;div&gt;hasd_ref&lt;/div&gt;&lt;div&gt;&lt;br&gt;&lt;/div&gt;" style="align=left;strokeColor=none;fillColor=none;spacingLeft=4;fontSize=12;verticalAlign=top;resizable=0;rotatable=0;part=1;html=1;" vertex="1" parent="6-rMLU2-hN97OAZTNsfX-1">
          <mxGeometry y="50" width="160" height="100" as="geometry" />
        </mxCell>
        <mxCell id="6-rMLU2-hN97OAZTNsfX-4" value="comments_subcollection" style="swimlane;childLayout=stackLayout;horizontal=1;startSize=50;horizontalStack=0;rounded=1;fontSize=14;fontStyle=0;strokeWidth=2;resizeParent=0;resizeLast=1;shadow=0;dashed=0;align=center;arcSize=4;whiteSpace=wrap;html=1;" vertex="1" parent="1">
          <mxGeometry x="60" y="330" width="280" height="230" as="geometry" />
        </mxCell>
        <mxCell id="6-rMLU2-hN97OAZTNsfX-7" value="comment" style="swimlane;childLayout=stackLayout;horizontal=1;startSize=50;horizontalStack=0;rounded=1;fontSize=14;fontStyle=0;strokeWidth=2;resizeParent=0;resizeLast=1;shadow=0;dashed=0;align=center;arcSize=4;whiteSpace=wrap;html=1;" vertex="1" parent="6-rMLU2-hN97OAZTNsfX-4">
          <mxGeometry y="50" width="280" height="160" as="geometry" />
        </mxCell>
        <mxCell id="6-rMLU2-hN97OAZTNsfX-8" value="_id&lt;div&gt;description&lt;/div&gt;&lt;div&gt;user_id&lt;/div&gt;&lt;div&gt;user_name&lt;/div&gt;&lt;div&gt;timestamp&lt;/div&gt;&lt;div&gt;likes&lt;/div&gt;&lt;div&gt;&lt;br&gt;&lt;/div&gt;&lt;div&gt;&lt;br&gt;&lt;/div&gt;" style="align=left;strokeColor=none;fillColor=none;spacingLeft=4;fontSize=12;verticalAlign=top;resizable=0;rotatable=0;part=1;html=1;" vertex="1" parent="6-rMLU2-hN97OAZTNsfX-7">
          <mxGeometry y="50" width="280" height="110" as="geometry" />
        </mxCell>
        <mxCell id="6-rMLU2-hN97OAZTNsfX-5" value="&lt;div&gt;&lt;br&gt;&lt;/div&gt;" style="align=left;strokeColor=none;fillColor=none;spacingLeft=4;fontSize=12;verticalAlign=top;resizable=0;rotatable=0;part=1;html=1;" vertex="1" parent="6-rMLU2-hN97OAZTNsfX-4">
          <mxGeometry y="210" width="280" height="20" as="geometry" />
        </mxCell>
        <mxCell id="6-rMLU2-hN97OAZTNsfX-15" value="user" style="swimlane;childLayout=stackLayout;horizontal=1;startSize=50;horizontalStack=0;rounded=1;fontSize=14;fontStyle=0;strokeWidth=2;resizeParent=0;resizeLast=1;shadow=0;dashed=0;align=center;arcSize=4;whiteSpace=wrap;html=1;" vertex="1" parent="1">
          <mxGeometry x="60" y="590" width="160" height="110" as="geometry" />
        </mxCell>
        <mxCell id="6-rMLU2-hN97OAZTNsfX-16" value="_id&lt;div&gt;name&lt;/div&gt;&lt;div&gt;church&lt;/div&gt;" style="align=left;strokeColor=none;fillColor=none;spacingLeft=4;fontSize=12;verticalAlign=top;resizable=0;rotatable=0;part=1;html=1;" vertex="1" parent="6-rMLU2-hN97OAZTNsfX-15">
          <mxGeometry y="50" width="160" height="60" as="geometry" />
        </mxCell>
        <mxCell id="6-rMLU2-hN97OAZTNsfX-18" style="edgeStyle=orthogonalEdgeStyle;rounded=0;orthogonalLoop=1;jettySize=auto;html=1;exitX=0.5;exitY=1;exitDx=0;exitDy=0;" edge="1" parent="6-rMLU2-hN97OAZTNsfX-15" source="6-rMLU2-hN97OAZTNsfX-16" target="6-rMLU2-hN97OAZTNsfX-16">
          <mxGeometry relative="1" as="geometry" />
        </mxCell>
        <mxCell id="6-rMLU2-hN97OAZTNsfX-19" value="hino_hasd" style="swimlane;childLayout=stackLayout;horizontal=1;startSize=50;horizontalStack=0;rounded=1;fontSize=14;fontStyle=0;strokeWidth=2;resizeParent=0;resizeLast=1;shadow=0;dashed=0;align=center;arcSize=4;whiteSpace=wrap;html=1;" vertex="1" parent="1">
          <mxGeometry x="440" y="40" width="160" height="150" as="geometry" />
        </mxCell>
        <mxCell id="6-rMLU2-hN97OAZTNsfX-20" value="_id&lt;div&gt;title&lt;/div&gt;&lt;div&gt;category&lt;/div&gt;&lt;div&gt;lyrics&lt;/div&gt;&lt;div&gt;humb_ref&lt;/div&gt;&lt;div&gt;&lt;br&gt;&lt;/div&gt;" style="align=left;strokeColor=none;fillColor=none;spacingLeft=4;fontSize=12;verticalAlign=top;resizable=0;rotatable=0;part=1;html=1;" vertex="1" parent="6-rMLU2-hN97OAZTNsfX-19">
          <mxGeometry y="50" width="160" height="100" as="geometry" />
        </mxCell>
        <mxCell id="6-rMLU2-hN97OAZTNsfX-21" style="edgeStyle=orthogonalEdgeStyle;rounded=0;orthogonalLoop=1;jettySize=auto;html=1;exitX=0.013;exitY=0.12;exitDx=0;exitDy=0;entryX=-0.006;entryY=0.68;entryDx=0;entryDy=0;exitPerimeter=0;entryPerimeter=0;" edge="1" parent="1" source="6-rMLU2-hN97OAZTNsfX-20" target="6-rMLU2-hN97OAZTNsfX-2">
          <mxGeometry relative="1" as="geometry" />
        </mxCell>
        <mxCell id="6-rMLU2-hN97OAZTNsfX-22" style="edgeStyle=orthogonalEdgeStyle;rounded=0;orthogonalLoop=1;jettySize=auto;html=1;exitX=0;exitY=0.75;exitDx=0;exitDy=0;entryX=0.988;entryY=0.12;entryDx=0;entryDy=0;entryPerimeter=0;" edge="1" parent="1" source="6-rMLU2-hN97OAZTNsfX-20" target="6-rMLU2-hN97OAZTNsfX-2">
          <mxGeometry relative="1" as="geometry" />
        </mxCell>
        <mxCell id="6-rMLU2-hN97OAZTNsfX-23" style="edgeStyle=orthogonalEdgeStyle;rounded=0;orthogonalLoop=1;jettySize=auto;html=1;exitX=0;exitY=0.25;exitDx=0;exitDy=0;entryX=0;entryY=0.5;entryDx=0;entryDy=0;" edge="1" parent="1" source="6-rMLU2-hN97OAZTNsfX-16" target="6-rMLU2-hN97OAZTNsfX-8">
          <mxGeometry relative="1" as="geometry" />
        </mxCell>
        <mxCell id="6-rMLU2-hN97OAZTNsfX-25" style="edgeStyle=orthogonalEdgeStyle;rounded=0;orthogonalLoop=1;jettySize=auto;html=1;exitX=0.5;exitY=1;exitDx=0;exitDy=0;entryX=0.786;entryY=0;entryDx=0;entryDy=0;entryPerimeter=0;" edge="1" parent="1" source="6-rMLU2-hN97OAZTNsfX-20" target="6-rMLU2-hN97OAZTNsfX-4">
          <mxGeometry relative="1" as="geometry" />
        </mxCell>
      </root>
    </mxGraphModel>
  </diagram>
</mxfile>
